<?xml version="1.0" encoding="UTF-8"?>
<svg id="Layer_3" data-name="Layer 3" xmlns="http://www.w3.org/2000/svg" xmlns:xlink="http://www.w3.org/1999/xlink" viewBox="0 0 501.94 501.94">
  <defs>
    <style>
      .cls-1 {
        fill: none;
      }

      .cls-2 {
        clip-path: url(#clippath);
      }

      .cls-3, .cls-4, .cls-5 {
        fill: #fff;
      }

      .cls-6, .cls-7 {
        fill: #704223;
      }

      .cls-4 {
        stroke: #704223;
        stroke-miterlimit: 10;
      }

      .cls-4, .cls-7, .cls-5 {
        fill-rule: evenodd;
      }
    </style>
    <clipPath id="clippath">
      <rect class="cls-1" width="501.94" height="501.94"/>
    </clipPath>
  </defs>
  <g class="cls-2">
    <g>
      <g>
        <path class="cls-6" d="M181.91,251.65c0-37.52,30.41-67.93,67.94-67.94h0c37.52,0,67.94,30.42,67.94,67.94h0c0,37.52-30.42,67.94-67.94,67.94h0c-37.52,0-67.94-30.41-67.94-67.94h0Zm2.67,0c.06,36.05,29.22,65.21,65.27,65.27h0c36.05-.06,65.2-29.21,65.27-65.27h0c-.07-36.05-29.22-65.2-65.27-65.27h0c-36.05,.06-65.21,29.22-65.27,65.27h0Z"/>
        <g>
          <path class="cls-5" d="M249.85,312.49c-33.55,0-60.84-27.29-60.84-60.83s27.29-60.84,60.84-60.84,60.83,27.3,60.83,60.84-27.29,60.83-60.83,60.83h0Z"/>
          <path class="cls-3" d="M249.85,190.15c-33.91,0-61.51,27.59-61.51,61.51s27.59,61.5,61.51,61.5,61.51-27.59,61.51-61.5-27.59-61.51-61.51-61.51h0Z"/>
        </g>
      </g>
      <g>
        <g>
          <g>
            <path class="cls-6" d="M223.31,125.45l2.37,11.13-.51,.11-2.37-11.13c.17-.03,.34-.08,.5-.11h0Zm53.63,252.3l-.51,.11-2.37-11.13,.51-.11,2.37,11.13h0Z"/>
            <path class="cls-6" d="M218.92,126.46l2.76,11.04-.51,.12-2.75-11.04,.5-.12h0Zm62.4,250.28l-.5,.12-2.75-11.04,.51-.12,2.75,11.04h0Z"/>
            <path class="cls-6" d="M214.57,127.6l3.14,10.94c-.17,.05-.33,.1-.5,.15l-3.14-10.94c.17-.05,.33-.1,.5-.15h0Zm71.1,247.97c-.17,.04-.33,.1-.5,.15l-3.14-10.94c.17-.05,.33-.1,.5-.15l3.14,10.95h0Z"/>
            <path class="cls-6" d="M210.26,128.92l3.52,10.82-.5,.16-3.52-10.82,.5-.16h0Zm79.71,245.31l-.5,.16-3.52-10.82,.5-.16,3.52,10.82h0Z"/>
            <path class="cls-6" d="M206,130.37l3.89,10.69-.49,.18-3.89-10.7c.16-.06,.33-.11,.49-.17h0Zm88.23,242.4c-.16,.06-.33,.11-.49,.17l-3.89-10.69,.49-.17,3.89,10.69h0Z"/>
            <path class="cls-6" d="M201.8,131.98l4.26,10.55-.48,.2-4.26-10.55,.48-.2h0Zm96.63,239.16l-.48,.2-4.26-10.55,.48-.2,4.26,10.55h0Z"/>
            <path class="cls-6" d="M197.65,133.73l4.63,10.4c-.16,.07-.32,.13-.48,.21l-4.63-10.39,.48-.21h0Zm104.92,235.65l-.48,.21-4.63-10.4c.16-.07,.32-.13,.48-.21l4.63,10.4h0Z"/>
            <path class="cls-6" d="M193.57,135.63l4.99,10.23-.47,.23-4.99-10.23,.47-.23h0Zm113.07,231.83l-.46,.23-4.99-10.22,.47-.24,4.99,10.23h0Z"/>
            <path class="cls-6" d="M189.56,137.67l5.34,10.04-.46,.24-5.34-10.04,.46-.24h0Zm121.09,227.74l-.46,.24-5.34-10.05,.46-.24,5.34,10.05h0Z"/>
            <path class="cls-6" d="M185.61,139.84l5.69,9.85c-.15,.09-.3,.18-.45,.26l-5.68-9.86c.15-.08,.29-.17,.44-.26h0Zm128.96,223.37c-.15,.09-.3,.18-.45,.27l-5.69-9.86c.15-.08,.3-.18,.45-.26l5.69,9.85h0Z"/>
            <path class="cls-6" d="M181.76,142.16l6.03,9.65-.44,.28-6.03-9.65,.44-.28h0Zm136.67,218.71l-.44,.28-6.03-9.65,.44-.27,6.03,9.65h0Z"/>
            <path class="cls-6" d="M177.98,144.6l6.36,9.44-.43,.29-6.36-9.43,.43-.29h0Zm144.22,213.82l-.43,.29-6.37-9.43,.43-.3,6.36,9.44h0Z"/>
            <path class="cls-6" d="M174.29,147.19l6.69,9.2-.42,.31-6.69-9.2,.42-.31h0Zm151.58,208.63l-.42,.31-6.69-9.21,.42-.31,6.69,9.21h0Z"/>
            <path class="cls-6" d="M170.69,149.89l7,8.97c-.14,.1-.27,.21-.41,.31l-7.01-8.97c.14-.11,.28-.21,.42-.32h0Zm158.77,203.22c-.14,.11-.28,.21-.41,.32l-7.01-8.96c.14-.11,.28-.21,.42-.32l7,8.96h0Z"/>
            <path class="cls-6" d="M167.19,152.72l7.31,8.71-.4,.34-7.31-8.72,.4-.33h0Zm165.76,197.54l-.4,.34-7.31-8.71,.4-.34,7.31,8.72h0Z"/>
            <path class="cls-6" d="M163.79,155.67l7.61,8.45-.39,.34-7.61-8.45,.39-.34h0Zm172.55,191.64c-.13,.12-.26,.23-.39,.35l-7.61-8.46,.39-.34,7.61,8.45h0Z"/>
            <path class="cls-6" d="M160.49,158.73l7.9,8.19-.37,.36-7.9-8.18c.12-.12,.25-.24,.37-.37h0Zm179.13,185.5l-.38,.36-7.9-8.18,.37-.37,7.9,8.19h0Z"/>
            <path class="cls-6" d="M157.3,161.9l8.18,7.9-.37,.37-8.18-7.9,.36-.37h0Zm185.49,179.14c-.12,.12-.24,.25-.36,.37l-8.18-7.9c.12-.12,.24-.25,.37-.37l8.18,7.91h0Z"/>
            <path class="cls-6" d="M154.22,165.19l8.45,7.61-.34,.39-8.45-7.61,.34-.39h0Zm191.64,172.55c-.12,.13-.23,.26-.34,.39l-8.46-7.61,.35-.39,8.46,7.62h0Z"/>
            <path class="cls-6" d="M151.27,168.58l8.72,7.31-.34,.39-8.71-7.31,.34-.4h0Zm197.54,165.76l-.34,.4-8.71-7.31,.33-.4,8.71,7.31h0Z"/>
            <path class="cls-6" d="M148.42,172.06l8.96,7c-.1,.14-.21,.28-.31,.41l-8.97-7c.11-.13,.21-.28,.32-.41h0Zm203.22,158.77c-.11,.14-.21,.28-.32,.41l-8.96-7c.11-.14,.21-.28,.32-.42l8.96,7.01h0Z"/>
            <path class="cls-6" d="M145.71,175.66l9.21,6.68-.31,.42-9.21-6.69,.31-.42h0Zm208.64,151.58l-.31,.42-9.2-6.69,.31-.42,9.21,6.69h0Z"/>
            <path class="cls-6" d="M143.11,179.33l9.43,6.36-.29,.43-9.43-6.36,.29-.44h0Zm213.82,144.23l-.29,.43-9.44-6.37,.29-.43,9.43,6.36h0Z"/>
            <path class="cls-6" d="M140.65,183.1l9.65,6.03-.28,.44-9.65-6.03,.28-.44h0Zm218.71,136.67l-.27,.44-9.65-6.03,.28-.44,9.64,6.03h0Z"/>
            <path class="cls-6" d="M138.32,186.95l9.86,5.69c-.09,.15-.18,.3-.27,.45l-9.85-5.69c.09-.15,.18-.3,.26-.45h0Zm223.37,128.96c-.09,.15-.18,.3-.27,.45l-9.85-5.69c.09-.15,.18-.29,.27-.45l9.85,5.69h0Z"/>
            <path class="cls-6" d="M136.12,190.89l10.05,5.34-.24,.46-10.05-5.34,.24-.46h0Zm227.73,121.09l-.24,.46-10.04-5.34,.24-.46,10.05,5.34h0Z"/>
            <path class="cls-6" d="M134.07,194.89l10.23,4.99-.23,.47-10.23-4.99,.23-.47h0Zm231.83,113.07l-.23,.46-10.23-4.99,.23-.46,10.23,4.99h0Z"/>
            <path class="cls-6" d="M132.15,198.96l10.39,4.63c-.07,.16-.14,.32-.21,.48l-10.4-4.63,.21-.47h0Zm235.64,104.91c-.07,.16-.14,.32-.2,.48l-10.4-4.63c.07-.16,.14-.32,.21-.47l10.39,4.62h0Z"/>
            <path class="cls-6" d="M130.39,203.1l10.55,4.26-.2,.48-10.55-4.26,.2-.48h0Zm239.16,96.63l-.19,.48-10.55-4.26,.2-.48,10.55,4.26h0Z"/>
            <path class="cls-6" d="M128.76,207.3l10.69,3.89c-.06,.16-.12,.33-.17,.49l-10.69-3.89c.06-.17,.11-.33,.17-.49h0Zm242.4,88.23c-.06,.16-.11,.33-.17,.49l-10.7-3.89,.18-.49,10.69,3.89h0Z"/>
            <path class="cls-6" d="M127.29,211.56l10.82,3.52-.16,.5-10.82-3.52,.16-.5h0Zm245.32,79.71l-.16,.5-10.82-3.52,.16-.5,10.82,3.52h0Z"/>
            <path class="cls-6" d="M125.96,215.86l10.94,3.14c-.05,.16-.1,.33-.15,.5l-10.94-3.14c.05-.17,.1-.33,.15-.5h0Zm247.96,71.1c-.05,.17-.1,.34-.15,.5l-10.94-3.13c.05-.17,.1-.33,.15-.5l10.94,3.13h0Z"/>
            <path class="cls-6" d="M124.79,220.2l11.04,2.76-.12,.5-11.04-2.75,.12-.51h0Zm250.27,62.41l-.12,.5-11.04-2.75,.12-.5,11.04,2.75h0Z"/>
            <path class="cls-6" d="M123.78,224.59l11.13,2.37c-.04,.17-.08,.34-.11,.51l-11.13-2.37,.11-.5h0Zm252.3,53.63l-.11,.51-11.13-2.37,.11-.5,11.13,2.37h0Z"/>
            <path class="cls-6" d="M122.91,229l11.21,1.98c-.03,.17-.06,.34-.09,.52l-11.21-1.98c.03-.17,.05-.34,.08-.52h0Zm254.01,44.79c-.03,.17-.06,.35-.09,.52l-11.21-1.98c.03-.17,.06-.35,.09-.52l11.21,1.98h0Z"/>
            <path class="cls-6" d="M122.21,233.45l11.27,1.58-.07,.52-11.27-1.58,.07-.52h0Zm255.4,35.89l-.07,.52-11.27-1.58,.07-.51,11.27,1.58h0Z"/>
            <path class="cls-6" d="M121.65,237.92l11.32,1.19c-.02,.17-.04,.34-.06,.52l-11.32-1.19c.02-.17,.04-.34,.06-.52h0Zm256.5,26.96c-.02,.17-.04,.34-.06,.52l-11.31-1.19c.02-.17,.04-.34,.06-.52l11.31,1.19h0Z"/>
            <path class="cls-6" d="M121.25,242.4l11.35,.79-.03,.52-11.35-.79,.03-.52h0Zm257.27,17.99l-.03,.52-11.35-.79,.03-.52,11.35,.79h0Z"/>
            <path class="cls-6" d="M121.02,246.9l11.37,.39-.02,.52-11.37-.39,.02-.52h0Zm257.73,9l-.02,.52-11.37-.4v-.52s11.38,.4,11.38,.4h0Z"/>
            <path class="cls-6" d="M120.93,251.4h11.37v.26s0,.26,0,.26h-11.37v-.26s0-.26,0-.26h0Zm257.89,0v.26s0,.26,0,.26h-11.38v-.26s0-.26,0-.26h11.38Z"/>
            <path class="cls-6" d="M121,255.9l11.37-.4,.02,.52-11.37,.4-.02-.52h0Zm257.73-9l.02,.52-11.37,.39v-.52s11.35-.39,11.35-.39h0Z"/>
            <path class="cls-6" d="M121.22,260.39l11.35-.79,.03,.52-11.35,.79-.03-.52h0Zm257.27-17.99l.03,.52-11.35,.79-.03-.52,11.35-.79h0Z"/>
            <path class="cls-6" d="M121.59,264.88l11.32-1.18c.02,.17,.04,.34,.06,.51l-11.31,1.19c-.02-.18-.04-.35-.06-.52h0Zm256.5-26.96c.02,.17,.04,.34,.06,.51l-11.31,1.19c-.02-.17-.04-.34-.06-.51l11.31-1.19h0Z"/>
            <path class="cls-6" d="M122.14,269.35l11.27-1.58,.07,.51-11.27,1.58-.07-.52h0Zm255.4-35.89l.07,.51-11.27,1.58-.07-.51,11.27-1.58h0Z"/>
            <path class="cls-6" d="M122.82,273.8l11.21-1.98c.03,.17,.05,.35,.09,.52l-11.21,1.97c-.03-.17-.06-.34-.08-.51h0Zm254.01-44.79c.03,.17,.06,.34,.09,.52l-11.21,1.98c-.03-.18-.06-.34-.09-.52l11.21-1.98h0Z"/>
            <path class="cls-6" d="M123.67,278.22l11.13-2.37c.03,.17,.08,.34,.11,.5l-11.13,2.37-.11-.51h0Zm252.3-53.63l.11,.51-11.13,2.37c-.03-.17-.07-.34-.11-.51l11.13-2.37h0Z"/>
            <path class="cls-6" d="M124.67,282.61l11.04-2.75,.12,.5-11.04,2.75-.12-.5h0Zm250.27-62.4l.12,.5-11.04,2.75-.13-.5,11.04-2.75h0Z"/>
            <path class="cls-6" d="M125.81,286.96l10.94-3.13c.05,.17,.1,.33,.15,.5l-10.94,3.13c-.05-.16-.1-.33-.15-.5h0Zm247.96-71.1c.05,.17,.1,.33,.15,.5l-10.94,3.14c-.05-.17-.1-.34-.15-.5l10.94-3.14h0Z"/>
            <path class="cls-6" d="M127.13,291.27l10.82-3.51,.16,.49-10.82,3.52-.16-.5h0Zm245.32-79.71l.16,.5-10.82,3.52-.16-.5,10.82-3.52h0Z"/>
            <path class="cls-6" d="M128.58,295.52l10.69-3.89,.18,.49-10.69,3.89c-.06-.16-.12-.32-.17-.49h0Zm242.4-88.23c.06,.16,.11,.33,.17,.49l-10.69,3.89c-.06-.16-.12-.33-.18-.49l10.7-3.89h0Z"/>
            <path class="cls-6" d="M130.19,299.73l10.55-4.26,.2,.48-10.55,4.26-.2-.48h0Zm239.16-96.63l.2,.48-10.55,4.26-.2-.48,10.55-4.26h0Z"/>
            <path class="cls-6" d="M131.94,303.88l10.4-4.62c.07,.15,.14,.31,.21,.47l-10.39,4.63c-.07-.16-.14-.32-.21-.48h0Zm235.64-104.91c.07,.16,.14,.31,.2,.47l-10.39,4.63-.21-.48,10.4-4.63h0Z"/>
            <path class="cls-6" d="M133.84,307.96l10.23-4.99,.23,.46-10.23,4.99-.23-.47h0Zm231.83-113.07l.23,.47-10.23,4.99-.23-.47,10.23-4.99h0Z"/>
            <path class="cls-6" d="M135.89,311.97l10.04-5.34,.24,.46-10.05,5.34-.24-.46h0Zm227.73-121.09l.24,.46-10.04,5.34-.25-.46,10.05-5.34h0Z"/>
            <path class="cls-6" d="M138.05,315.92l9.86-5.69c.09,.15,.18,.29,.26,.44l-9.85,5.69c-.09-.15-.18-.3-.27-.45h0Zm223.37-128.96c.09,.15,.18,.29,.27,.45l-9.86,5.69c-.09-.15-.18-.3-.27-.45l9.85-5.68h0Z"/>
            <path class="cls-6" d="M140.38,319.77l9.65-6.03,.28,.45-9.65,6.02-.28-.44h0Zm218.71-136.67l.28,.44-9.65,6.03-.28-.44,9.65-6.03h0Z"/>
            <path class="cls-6" d="M142.82,323.55l9.44-6.36,.29,.43-9.43,6.37-.29-.43h0Zm213.81-144.22l.29,.43-9.43,6.36-.29-.43,9.43-6.36h0Z"/>
            <path class="cls-6" d="M145.4,327.24l9.2-6.69,.31,.42-9.21,6.69-.31-.42h0Zm208.63-151.58l.31,.42-9.21,6.69-.3-.42,9.2-6.69h0Z"/>
            <path class="cls-6" d="M148.1,330.84l8.97-7.01c.1,.14,.21,.28,.31,.42l-8.96,7c-.11-.14-.21-.27-.32-.41h0Zm203.22-158.77c.11,.13,.21,.28,.32,.41l-8.96,7c-.11-.13-.21-.27-.32-.41l8.96-7h0Z"/>
            <path class="cls-6" d="M150.93,334.34l8.71-7.31,.34,.4-8.72,7.31-.34-.4h0Zm197.54-165.75l.34,.39-8.72,7.31-.34-.39,8.71-7.31h0Z"/>
            <path class="cls-6" d="M153.88,337.74l8.45-7.62,.34,.39-8.45,7.62-.34-.39h0Zm191.64-172.55l.34,.39-8.46,7.61-.34-.39,8.46-7.61h0Z"/>
            <path class="cls-6" d="M156.94,341.04l8.18-7.91,.36,.37-8.18,7.9c-.12-.12-.24-.24-.36-.37h0Zm185.5-179.13l.36,.37-8.18,7.91-.36-.37,8.18-7.9h0Z"/>
            <path class="cls-6" d="M160.12,344.23l7.9-8.19,.37,.37-7.9,8.18-.37-.36h0Zm179.13-185.5c.13,.12,.25,.24,.37,.36l-7.9,8.18c-.13-.12-.25-.24-.37-.36l7.9-8.18h0Z"/>
            <path class="cls-6" d="M163.4,347.3l7.61-8.45c.13,.11,.26,.23,.39,.34l-7.61,8.46-.39-.35h0Zm172.55-191.64l.39,.34-7.61,8.45c-.12-.12-.26-.23-.39-.34l7.61-8.45h0Z"/>
            <path class="cls-6" d="M166.79,350.26l7.31-8.72,.39,.34-7.31,8.71-.4-.34h0Zm165.76-197.54l.4,.33-7.31,8.72-.39-.34,7.31-8.71h0Z"/>
            <path class="cls-6" d="M170.28,353.11l7.01-8.97c.13,.11,.27,.21,.41,.32l-7,8.96c-.14-.11-.28-.21-.41-.31h0Zm158.77-203.22c.14,.1,.28,.21,.41,.31l-7.01,8.97c-.14-.1-.27-.21-.41-.31l7.01-8.97h0Z"/>
            <path class="cls-6" d="M173.87,355.82l6.69-9.21,.42,.31-6.68,9.21-.42-.31h0Zm151.59-208.63l.42,.31-6.69,9.2-.42-.31,6.69-9.2h0Z"/>
            <path class="cls-6" d="M177.54,358.42l6.36-9.44,.43,.3-6.36,9.43-.43-.29h0Zm144.22-213.81l.43,.29-6.36,9.43-.43-.29,6.36-9.43h0Z"/>
            <path class="cls-6" d="M181.32,360.87l6.03-9.65,.44,.28-6.03,9.64-.44-.28h0Zm136.67-218.71l.44,.28-6.03,9.65-.44-.28,6.03-9.65h0Z"/>
            <path class="cls-6" d="M185.17,363.21l5.69-9.85c.15,.08,.29,.18,.45,.26l-5.69,9.86c-.15-.08-.3-.18-.45-.27h0Zm128.96-223.37c.15,.09,.3,.18,.45,.26l-5.69,9.86c-.15-.08-.3-.18-.45-.26l5.69-9.86h0Z"/>
            <path class="cls-6" d="M189.1,365.41l5.34-10.05,.46,.24-5.34,10.05-.46-.24h0Zm121.09-227.74l.46,.24-5.34,10.04-.46-.24,5.34-10.04h0Z"/>
            <path class="cls-6" d="M193.1,367.46l4.99-10.23,.46,.24-4.98,10.22-.47-.23h0Zm113.07-231.83l.46,.23-4.99,10.23-.47-.23,4.99-10.23h0Z"/>
            <path class="cls-6" d="M197.18,369.38l4.63-10.4,.47,.21-4.63,10.4c-.16-.07-.32-.14-.47-.21h0Zm104.92-235.65c.16,.07,.31,.14,.47,.21l-4.63,10.4c-.16-.08-.32-.14-.47-.21l4.63-10.4h0Z"/>
            <path class="cls-6" d="M201.31,371.14l4.26-10.55,.48,.2-4.26,10.55-.48-.2h0Zm96.63-239.16l.48,.2-4.26,10.55-.48-.2,4.26-10.55h0Z"/>
            <path class="cls-6" d="M205.51,372.77l3.89-10.69,.49,.18-3.89,10.69c-.16-.06-.33-.11-.49-.18h0Zm88.23-242.39c.16,.05,.33,.11,.49,.17l-3.89,10.69-.49-.17,3.89-10.69h0Z"/>
            <path class="cls-6" d="M209.77,374.24l3.52-10.83,.49,.16-3.51,10.82-.5-.16h0Zm79.71-245.32l.49,.16-3.51,10.82-.49-.16,3.52-10.82h0Z"/>
            <path class="cls-6" d="M214.07,375.57l3.14-10.95c.17,.05,.33,.11,.5,.15l-3.14,10.94c-.17-.05-.33-.11-.5-.15h0Zm71.1-247.97c.17,.05,.33,.1,.5,.15l-3.14,10.94c-.17-.05-.33-.1-.5-.15l3.14-10.94h0Z"/>
            <path class="cls-6" d="M218.42,376.73l2.76-11.04,.5,.12-2.76,11.04-.5-.12h0Zm62.4-250.28l.51,.12-2.76,11.04-.51-.12,2.75-11.04h0Z"/>
            <path class="cls-6" d="M222.8,377.75l2.37-11.13,.51,.11-2.37,11.13-.51-.11h0Zm53.63-252.3l.51,.11-2.37,11.13c-.17-.04-.34-.08-.51-.11l2.37-11.13h0Z"/>
            <path class="cls-6" d="M227.22,378.62l1.97-11.21c.17,.03,.34,.05,.51,.08l-1.98,11.21c-.17-.03-.34-.05-.51-.08h0Zm44.79-254.01c.17,.03,.34,.05,.51,.09l-1.98,11.2c-.17-.03-.34-.05-.52-.08l1.98-11.21h0Z"/>
            <path class="cls-6" d="M231.67,379.32l1.58-11.27,.51,.07-1.58,11.27-.51-.07h0Zm35.89-255.4l.51,.07-1.58,11.27-.51-.08,1.58-11.27h0Z"/>
            <path class="cls-6" d="M236.13,379.87l1.19-11.31c.17,.02,.34,.04,.52,.06l-1.19,11.31c-.17-.02-.34-.04-.52-.06h0Zm26.96-256.5c.17,.02,.34,.04,.52,.06l-1.19,11.31c-.18-.02-.35-.04-.52-.06l1.19-11.31h0Z"/>
            <path class="cls-6" d="M240.62,380.27l.79-11.35,.52,.03-.79,11.35c-.17-.01-.35-.03-.52-.03h0Zm17.99-257.26l.52,.03-.8,11.35-.52-.03,.79-11.35h0Z"/>
            <path class="cls-6" d="M245.11,380.51l.4-11.37,.52,.02-.4,11.37-.52-.02h0Zm9-257.72l.52,.02-.4,11.37-.52-.02,.39-11.37h0Z"/>
            <path class="cls-6" d="M249.61,380.6v-11.38h.26s.26,0,.26,0v11.38h-.26s-.26,0-.26,0h0Zm.26-257.89h.26v11.38h-.26s-.26,0-.26,0v-11.38h.26Z"/>
            <path class="cls-6" d="M254.11,380.53l-.39-11.37,.52-.02,.4,11.37-.52,.02h0Zm-9-257.72l.52-.02,.4,11.37-.52,.02-.4-11.37h0Z"/>
            <path class="cls-6" d="M258.6,380.3l-.79-11.35,.52-.03,.79,11.35-.52,.03h0Zm-17.99-257.26c.17-.01,.34-.02,.52-.03l.79,11.35c-.17,.01-.34,.02-.52,.03l-.79-11.35h0Z"/>
            <path class="cls-6" d="M263.09,379.93l-1.19-11.31c.17-.02,.34-.04,.52-.06l1.19,11.31c-.17,.02-.34,.04-.52,.06h0Zm-26.96-256.49c.17-.02,.34-.05,.51-.06l1.19,11.31c-.17,.02-.34,.04-.52,.06l-1.19-11.31h0Z"/>
            <path class="cls-6" d="M267.56,379.39l-1.58-11.27,.52-.07,1.58,11.27-.52,.07h0Zm-35.89-255.4l.51-.08,1.58,11.27-.52,.08-1.58-11.27h0Z"/>
          </g>
          <path class="cls-6" d="M270.55,367.42c-.17,.03-.34,.05-.51,.08l1.98,11.25c.17-.03,.35-.05,.52-.09l-1.98-11.25Zm-43.34-242.77l1.98,11.25c.17-.03,.34-.05,.51-.08l-1.98-11.25c-.17,.03-.34,.05-.51,.08Z"/>
        </g>
        <g>
          <g>
            <polygon class="cls-6" points="226.36 192.23 225.78 192.51 195.51 122.43 196.05 122.18 226.36 192.23"/>
            <polygon class="cls-6" points="205.4 205.77 204.98 206.22 110.6 114.64 111.04 114.22 205.4 205.77"/>
            <polygon class="cls-6" points="191.23 226.27 191.01 226.86 120.05 198.7 120.27 198.16 191.23 226.27"/>
            <polygon class="cls-6" points="190.45 275.18 190.7 275.72 120.62 306.01 120.37 305.47 190.45 275.18"/>
            <polygon class="cls-6" points="203.98 296.13 204.41 296.57 112.62 391.14 112.16 390.76 203.98 296.13"/>
            <polygon class="cls-6" points="224.52 310.3 225.05 310.54 196.9 381.49 196.32 381.27 224.52 310.3"/>
            <polygon class="cls-6" points="273.37 311.1 273.93 310.81 304.21 380.93 303.65 381.13 273.37 311.1"/>
            <polygon class="cls-6" points="294.35 297.57 294.74 297.11 388.64 388.22 388.25 388.68 294.35 297.57"/>
            <polygon class="cls-6" points="308.5 277.02 308.71 276.46 379.69 304.63 379.45 305.17 308.5 277.02"/>
            <polygon class="cls-6" points="309.27 228.14 309.02 227.6 379.1 197.31 379.35 197.85 309.27 228.14"/>
            <polygon class="cls-6" points="294.34 208.39 293.71 207.82 387.71 115.39 388.31 116.02 294.34 208.39"/>
            <polygon class="cls-6" points="275.22 193.03 274.68 192.8 302.8 121.83 303.39 122.05 275.22 193.03"/>
          </g>
          <path class="cls-3" d="M249.71,76.43c-96.83,0-175.33,78.5-175.33,175.33s78.5,175.34,175.33,175.34,175.33-78.5,175.33-175.34S346.54,76.43,249.71,76.43Zm0,329.33c-85.05,0-154-68.95-154-154S164.66,97.77,249.71,97.77s154,68.95,154,154-68.95,154-154,154Z"/>
        </g>
        <g>
          <path class="cls-6" d="M351.03,147.26c-57.66-55.85-149.67-54.44-205.55,3.25-55.89,57.64-54.43,149.69,3.23,205.54,57.63,55.88,149.67,54.44,205.55-3.21,55.89-57.64,54.44-149.68-3.23-205.58Zm-58.59,238.47c-74.06,23.52-153.13-17.45-176.64-91.5-23.54-74.04,17.45-153.13,91.49-176.66,74.02-23.5,153.13,17.45,176.69,91.5,23.49,74.08-17.48,153.15-91.53,176.66Z"/>
          <path class="cls-6" d="M180.08,184.03c-37.35,38.54-36.39,100.07,2.16,137.39,38.54,37.37,100.08,36.4,137.4-2.12,37.37-38.56,36.4-100.09-2.14-137.43-38.53-37.36-100.06-36.39-137.41,2.15Zm138.69,134.4c-36.89,38.08-97.64,39.04-135.68,2.16-38.04-36.92-39.02-97.67-2.14-135.72,36.91-38.07,97.65-39.02,135.72-2.14,38.06,36.92,38.98,97.65,2.11,135.7Z"/>
          <path class="cls-6" d="M189.29,192.95c-32.42,33.46-31.58,86.88,1.87,119.26,33.43,32.45,86.85,31.59,119.31-1.85,32.39-33.47,31.57-86.89-1.9-119.28-33.44-32.45-86.87-31.6-119.28,1.87Zm120.41,116.66c-32.02,33.05-84.75,33.92-117.81,1.86-33.04-32.01-33.85-84.76-1.82-117.8,32-33.02,84.75-33.84,117.8-1.82,33.02,32,33.83,84.75,1.84,117.77Z"/>
          <path class="cls-6" d="M206.06,209.2c-23.45,24.2-22.83,62.82,1.37,86.25,24.17,23.42,62.78,22.83,86.22-1.37,23.49-24.17,22.88-62.8-1.33-86.23-24.2-23.43-62.81-22.84-86.26,1.35Zm87.12,84.44c-23.17,23.92-61.36,24.53-85.3,1.34-23.92-23.2-24.51-61.39-1.33-85.34,23.18-23.91,61.39-24.51,85.34-1.33,23.9,23.2,24.51,61.39,1.3,85.32Z"/>
        </g>
        <g>
          <path class="cls-6" d="M249.61,41.42l12.27,15.43v-10.7c0-1.49-.21-2.5-.64-3.03-.59-.71-1.57-1.05-2.95-1.03v-.68h8.22v.68c-1.05,.13-1.76,.31-2.12,.52-.36,.22-.64,.56-.84,1.05-.2,.48-.3,1.31-.3,2.48v20.72h-.62l-16.83-20.72v15.82c0,1.43,.32,2.4,.98,2.9,.65,.5,1.41,.75,2.25,.75h.59v.68h-8.83v-.68c1.37,0,2.33-.29,2.86-.84,.54-.56,.81-1.49,.81-2.81v-17.56l-.53-.66c-.53-.66-.99-1.09-1.39-1.3-.41-.21-.99-.32-1.74-.35v-.68h8.83Z"/>
          <path class="cls-6" d="M45.62,231.8h.68c.04,.46,.16,.85,.38,1.17,.22,.32,.56,.6,1.01,.84,.15,.08,1.1,.46,2.84,1.16l20.53,7.8v.72l-16.04,6.16,16.04,6.79v.69l-20.31,8.18c-2.04,.83-3.28,1.41-3.71,1.74-.43,.33-.68,.89-.75,1.67h-.68v-10.79h.68c.02,.87,.16,1.45,.4,1.74,.24,.28,.53,.43,.89,.43,.47,0,1.45-.3,2.95-.9l12.07-4.88-9.43-3.91-2.64,1.03c-1.44,.56-2.4,1-2.88,1.3-.48,.3-.83,.66-1.04,1.06-.21,.39-.31,.98-.31,1.75h-.68v-12.05h.68c.01,.84,.08,1.45,.2,1.82,.09,.26,.23,.46,.43,.6,.2,.15,.43,.22,.69,.22,.28,0,1.14-.27,2.59-.82l11.78-4.53-10.66-4.06c-1.1-.42-1.85-.69-2.26-.79-.4-.1-.78-.15-1.12-.15-.5,0-.89,.17-1.18,.52-.29,.34-.45,1-.47,1.96h-.68v-6.46Z"/>
          <path class="cls-6" d="M246.66,459.22l-.2-8.29h.75c.36,2.08,1.22,3.75,2.61,5.02,1.39,1.26,2.89,1.89,4.51,1.89,1.25,0,2.23-.33,2.96-1,.72-.67,1.09-1.43,1.09-2.3,0-.55-.12-1.04-.38-1.47-.35-.57-.92-1.14-1.71-1.71-.57-.41-1.9-1.12-3.98-2.15-2.91-1.43-4.87-2.78-5.89-4.05-1-1.27-1.5-2.73-1.5-4.37,0-2.08,.81-3.87,2.43-5.37,1.62-1.5,3.68-2.25,6.18-2.25,.78,0,1.52,.08,2.22,.24,.7,.16,1.57,.46,2.63,.9,.58,.25,1.07,.37,1.45,.37,.32,0,.65-.12,1.01-.37,.35-.24,.64-.62,.86-1.12h.68v9.39h-.68c-.54-2.64-1.58-4.66-3.11-6.05-1.54-1.39-3.19-2.08-4.96-2.08-1.37,0-2.47,.37-3.28,1.12-.81,.75-1.22,1.62-1.22,2.61,0,.59,.15,1.16,.47,1.71,.31,.55,.79,1.07,1.43,1.57,.63,.5,1.76,1.14,3.37,1.94,2.26,1.11,3.89,2.06,4.88,2.84,.99,.79,1.75,1.66,2.28,2.63,.54,.96,.8,2.03,.8,3.19,0,1.98-.72,3.67-2.18,5.06-1.46,1.4-3.29,2.09-5.5,2.09-.81,0-1.59-.1-2.35-.3-.58-.14-1.28-.42-2.1-.81-.83-.4-1.4-.6-1.73-.6s-.57,.1-.75,.29c-.18,.2-.35,.67-.52,1.41h-.55Z"/>
          <path class="cls-6" d="M461.7,248.43h-10.12v.49c0,1.58,.49,2.72,1.49,3.43,.99,.71,2.45,1.16,4.38,1.35v.7h-13.03v-.7c1.42-.14,2.58-.45,3.49-.92,.9-.47,1.52-1.02,1.83-1.65,.31-.63,.46-1.53,.46-2.71h-7.01c-1.37,0-2.21,.05-2.51,.17-.3,.12-.56,.33-.75,.65-.2,.32-.29,.83-.29,1.54v1.49c0,2.32,.54,4.19,1.62,5.59,1.07,1.4,2.72,2.4,4.92,3.01v.68l-7.91-1.12v-21.5h.68v.82c0,.72,.13,1.3,.38,1.75,.17,.32,.46,.56,.88,.73,.29,.14,1.07,.2,2.31,.2h16.36c1.13,0,1.82-.03,2.07-.09,.43-.12,.76-.35,.99-.68,.34-.46,.51-1.1,.51-1.91v-.82h.68v20.82h-7.36v-.7c1.8-.36,3.09-.85,3.87-1.49,.78-.64,1.36-1.55,1.72-2.72,.22-.68,.33-1.97,.33-3.85v-2.57Z"/>
        </g>
        <g>
          <g>
            <path class="cls-6" d="M375.71,368.41l-2.81-2.68,.25-.25c.8,.57,1.65,.84,2.53,.79,.88-.04,1.59-.33,2.12-.87,.42-.41,.63-.85,.65-1.31,.02-.46-.12-.84-.41-1.12-.18-.18-.39-.3-.61-.36-.31-.07-.69-.07-1.13,0-.33,.06-1,.26-2.04,.61-1.44,.49-2.54,.7-3.29,.61-.76-.09-1.4-.41-1.95-.95-.69-.69-1.01-1.55-.97-2.58,.04-1.03,.47-1.96,1.3-2.79,.26-.26,.53-.48,.82-.65,.28-.18,.67-.37,1.17-.57,.27-.11,.47-.23,.6-.36,.11-.11,.18-.26,.21-.46,.04-.2,0-.42-.09-.66l.23-.22,3.11,3.11-.23,.22c-1.05-.7-2.06-1.02-3.03-.97-.97,.05-1.75,.37-2.33,.96-.45,.46-.7,.94-.72,1.46-.02,.52,.13,.94,.46,1.27,.19,.19,.43,.33,.72,.41,.29,.08,.62,.1,.99,.05,.38-.05,.96-.21,1.77-.48,1.12-.38,1.97-.61,2.56-.67,.59-.07,1.13-.03,1.62,.11,.5,.14,.94,.41,1.32,.79,.66,.66,.98,1.46,.95,2.4-.02,.94-.39,1.78-1.13,2.52-.26,.27-.56,.5-.88,.68-.23,.14-.56,.29-.97,.43-.4,.14-.66,.27-.77,.37-.11,.11-.16,.23-.15,.35,0,.13,.1,.34,.3,.64l-.19,.18Z"/>
            <path class="cls-6" d="M370.59,372.22l-3.36-3.36-.16,.16c-.52,.52-.74,1.07-.64,1.63,.09,.56,.43,1.19,1,1.9l-.23,.23-4.31-4.31,.22-.23c.52,.42,1.01,.7,1.46,.85,.46,.14,.84,.16,1.15,.06,.31-.1,.66-.35,1.05-.74l-2.32-2.32c-.46-.46-.75-.71-.89-.78-.14-.06-.3-.07-.47-.03-.17,.04-.37,.18-.61,.41l-.49,.49c-.77,.77-1.21,1.56-1.31,2.38-.1,.82,.1,1.7,.63,2.63l-.22,.22-2.25-2.99,7.13-7.12,.22,.22-.28,.27c-.23,.24-.39,.47-.45,.71-.05,.16-.04,.34,.05,.53,.05,.14,.28,.42,.7,.83l5.42,5.42c.38,.37,.61,.59,.72,.65,.18,.1,.37,.14,.55,.11,.27-.04,.54-.2,.8-.46l.27-.27,.22,.22-6.89,6.9-2.44-2.44,.23-.23c.72,.48,1.3,.74,1.78,.79,.47,.05,.97-.06,1.47-.33,.3-.15,.76-.54,1.39-1.17l.85-.85Z"/>
          </g>
          <g>
            <path class="cls-6" d="M132.14,375.45l2.73-2.77,.24,.26c-.58,.79-.87,1.63-.84,2.51,.02,.88,.3,1.59,.82,2.13,.41,.42,.84,.64,1.3,.68,.46,.02,.84-.1,1.13-.39,.19-.17,.31-.38,.37-.61,.08-.3,.08-.68,.02-1.13-.05-.33-.25-1.01-.57-2.04-.47-1.45-.66-2.55-.56-3.31,.1-.75,.43-1.39,.98-1.92,.7-.68,1.56-.99,2.6-.93,1.03,.06,1.96,.51,2.77,1.35,.26,.26,.47,.53,.65,.82,.17,.29,.36,.68,.55,1.18,.11,.28,.22,.48,.35,.61,.1,.11,.25,.18,.45,.22,.2,.04,.42,.02,.66-.07l.22,.23-3.16,3.06-.22-.23c.71-1.04,1.05-2.05,1.02-3.02-.03-.97-.34-1.75-.92-2.35-.45-.46-.93-.71-1.44-.74-.52-.03-.94,.11-1.28,.44-.2,.19-.34,.43-.42,.71-.08,.28-.1,.61-.06,.99,.04,.38,.18,.97,.45,1.77,.36,1.12,.57,1.98,.63,2.57,.06,.58,.01,1.13-.14,1.62-.15,.49-.42,.93-.81,1.31-.66,.65-1.47,.95-2.42,.92-.94-.04-1.77-.43-2.5-1.17-.26-.27-.49-.56-.67-.88-.13-.24-.27-.57-.41-.98-.13-.41-.26-.67-.36-.78-.11-.11-.22-.16-.35-.15-.12,0-.33,.1-.64,.29l-.18-.19Z"/>
            <path class="cls-6" d="M119.14,361.63l.23-.22c.17,.14,.34,.23,.51,.27,.18,.04,.39,.02,.62-.04,.07-.02,.52-.2,1.34-.54l9.45-4.06,.23,.24-3.39,7.3,7.61-2.94,.22,.23-4.17,9.37c-.41,.95-.64,1.54-.68,1.8-.04,.25,.06,.52,.29,.8l-.23,.22-3.51-3.63,.23-.22c.29,.29,.52,.44,.7,.46,.17,.02,.32-.03,.44-.15,.16-.15,.39-.57,.7-1.26l2.48-5.58-4.45,1.76-.56,1.21c-.3,.66-.49,1.12-.55,1.38-.06,.26-.07,.49,0,.69,.06,.21,.22,.44,.46,.7l-.23,.22-3.92-4.06,.23-.22c.28,.28,.5,.46,.66,.55,.11,.05,.23,.08,.34,.06,.11-.02,.22-.06,.3-.15,.09-.09,.29-.46,.6-1.12l2.49-5.37-4.91,2.11c-.51,.22-.85,.37-1.02,.47-.17,.09-.31,.2-.43,.31-.16,.16-.24,.35-.23,.56,.01,.21,.17,.48,.48,.81l-.23,.22-2.1-2.17Z"/>
          </g>
          <g>
            <path class="cls-6" d="M367.23,130.73l-1.04,9.18,3.55-3.54c.49-.49,.76-.9,.79-1.22,.04-.43-.17-.87-.64-1.32l.22-.22,2.72,2.72-.22,.22c-.39-.3-.68-.48-.88-.53-.19-.05-.4-.02-.63,.07-.22,.09-.53,.33-.92,.72l-6.86,6.86-.21-.2,1.29-12.44-5.24,5.24c-.47,.48-.69,.9-.63,1.29,.05,.38,.21,.71,.49,.99l.19,.19-.22,.22-2.92-2.92,.22-.22c.46,.45,.87,.67,1.23,.67,.36,0,.76-.22,1.19-.66l5.82-5.81,.04-.39c.04-.4,.04-.69-.03-.89-.07-.2-.22-.43-.46-.7l.22-.22,2.92,2.92Z"/>
            <path class="cls-6" d="M376.04,140.48l-3.36,3.36,.16,.16c.53,.52,1.06,.74,1.63,.64,.56-.09,1.2-.42,1.9-1l.23,.23-4.32,4.31-.23-.23c.42-.52,.7-1,.85-1.46,.14-.45,.16-.84,.06-1.15-.1-.31-.36-.66-.74-1.05l-2.32,2.32c-.46,.46-.71,.75-.78,.89-.06,.14-.07,.29-.03,.47,.04,.17,.18,.37,.41,.61l.49,.49c.77,.77,1.56,1.21,2.39,1.32,.82,.11,1.7-.11,2.62-.63l.23,.22-2.99,2.25-7.12-7.12,.23-.22,.27,.27c.24,.24,.48,.39,.71,.45,.16,.05,.34,.03,.54-.05,.14-.05,.42-.28,.83-.7l5.42-5.42c.37-.37,.59-.61,.66-.72,.1-.18,.13-.37,.1-.55-.04-.27-.2-.54-.46-.8l-.27-.28,.22-.22,6.9,6.9-2.44,2.44-.23-.23c.48-.71,.74-1.3,.79-1.78,.05-.47-.06-.96-.33-1.47-.15-.3-.54-.76-1.16-1.39l-.85-.85Z"/>
          </g>
          <g>
            <path class="cls-6" d="M122.57,142.45l9.17,1.04-3.54-3.54c-.49-.49-.9-.76-1.22-.79-.43-.04-.87,.17-1.32,.64l-.22-.23,2.72-2.72,.23,.22c-.3,.39-.48,.68-.53,.87-.05,.19-.03,.4,.06,.63,.09,.23,.34,.54,.72,.92l6.86,6.87-.21,.2-12.43-1.29,5.24,5.24c.47,.48,.9,.69,1.29,.63,.38-.05,.71-.22,.99-.5l.19-.19,.23,.22-2.93,2.92-.22-.23c.45-.46,.67-.87,.67-1.22,0-.36-.23-.76-.66-1.2l-5.82-5.82-.4-.04c-.39-.04-.69-.04-.89,.03-.2,.07-.43,.22-.69,.46l-.22-.22,2.92-2.92Z"/>
            <path class="cls-6" d="M140.8,124.22l.22,.22c-.14,.17-.23,.34-.26,.52-.03,.17-.02,.38,.05,.61,.03,.07,.21,.52,.56,1.33l4.22,9.39-.24,.24-7.35-3.27,3.06,7.56-.22,.23-9.44-4.02c-.95-.4-1.56-.61-1.8-.65s-.52,.06-.8,.3l-.22-.22,3.57-3.57,.23,.22c-.28,.3-.43,.53-.45,.71-.02,.17,.03,.32,.16,.43,.15,.15,.58,.38,1.28,.68l5.61,2.39-1.83-4.42-1.22-.54c-.67-.29-1.12-.47-1.39-.52-.26-.06-.5-.06-.69,0-.2,.06-.43,.22-.69,.48l-.22-.22,3.99-4,.23,.23c-.28,.28-.46,.5-.54,.67-.06,.11-.08,.23-.06,.35,.02,.11,.07,.21,.15,.3,.09,.09,.47,.29,1.13,.58l5.4,2.4-2.19-4.87c-.22-.51-.38-.85-.48-1.01-.1-.16-.21-.31-.32-.42-.17-.17-.35-.24-.56-.22-.21,.02-.48,.18-.81,.5l-.23-.23,2.14-2.14Z"/>
          </g>
        </g>
        <g>
          <path class="cls-6" d="M281.08,181.58c.85,2.04-.12,4.39-2.17,5.23-2.04,.85-4.39-.12-5.24-2.17-.84-2.04,.13-4.39,2.17-5.23,2.04-.85,4.39,.12,5.23,2.17Z"/>
          <path class="cls-6" d="M321.41,278.51c.85,2.04-.12,4.39-2.17,5.24-2.04,.85-4.39-.12-5.23-2.17-.84-2.04,.12-4.39,2.17-5.23,2.04-.85,4.39,.12,5.23,2.17Z"/>
          <path class="cls-6" d="M224.28,318.49c.85,2.04-.12,4.39-2.17,5.23-2.04,.84-4.39-.12-5.23-2.17-.85-2.04,.12-4.39,2.17-5.23,2.04-.85,4.39,.12,5.23,2.17Z"/>
          <path class="cls-6" d="M183.97,221.76c.85,2.04-.12,4.39-2.17,5.23-2.04,.85-4.39-.12-5.23-2.17-.85-2.04,.12-4.39,2.17-5.23,2.04-.85,4.39,.12,5.23,2.17Z"/>
          <path class="cls-6" d="M222.16,179.39c2.04,.85,3.02,3.19,2.17,5.23-.85,2.04-3.19,3.02-5.23,2.17-2.04-.85-3.01-3.19-2.17-5.23,.85-2.04,3.19-3.02,5.23-2.17Z"/>
          <path class="cls-6" d="M319.22,219.42c2.04,.85,3.01,3.19,2.17,5.23-.85,2.04-3.19,3.02-5.23,2.17-2.04-.85-3.01-3.19-2.17-5.23,.84-2.04,3.19-3.01,5.23-2.17Z"/>
          <path class="cls-6" d="M278.81,316.37c2.04,.85,3.02,3.19,2.17,5.23-.85,2.04-3.19,3.02-5.23,2.17-2.04-.85-3.01-3.19-2.17-5.23,.85-2.04,3.19-3.02,5.23-2.17Z"/>
          <path class="cls-6" d="M181.9,276.47c2.05,.85,3.02,3.19,2.17,5.23-.85,2.04-3.19,3.02-5.23,2.17-2.04-.84-3.01-3.19-2.17-5.23,.85-2.04,3.19-3.01,5.23-2.17Z"/>
        </g>
      </g>
      <g>
        <polygon class="cls-4" points="230.92 232.72 249.86 76.78 268.81 232.72 249.86 251.64 230.92 232.72"/>
        <polygon class="cls-7" points="230.92 232.72 249.84 76.91 249.86 251.64 230.92 232.72"/>
        <polygon class="cls-4" points="231.13 270.67 74.99 251.66 230.92 232.72 249.86 251.64 231.13 270.67"/>
        <polygon class="cls-7" points="230.92 270.6 74.99 251.66 249.86 251.64 230.92 270.6"/>
        <polygon class="cls-4" points="268.81 270.6 249.87 426.53 230.92 270.6 249.86 251.64 268.81 270.6"/>
        <polygon class="cls-7" points="268.81 270.6 249.89 426.41 249.89 251.66 268.81 270.6"/>
        <polygon class="cls-4" points="268.81 232.72 424.74 251.66 268.81 270.6 249.86 251.64 268.81 232.72"/>
        <polygon class="cls-7" points="268.81 232.72 424.62 251.64 249.86 251.64 268.81 232.72"/>
        <polygon class="cls-4" points="235.04 251.66 181.4 183.2 249.87 236.83 249.86 251.65 235.04 251.66"/>
        <polygon class="cls-7" points="235.04 251.66 181.44 183.26 249.86 251.65 235.04 251.66"/>
        <polygon class="cls-4" points="249.98 266.44 181.41 320.12 235.04 251.66 249.86 251.65 249.98 266.44"/>
        <polygon class="cls-7" points="249.87 266.49 181.41 320.12 249.86 251.65 249.87 266.49"/>
        <polygon class="cls-4" points="264.7 251.66 318.33 320.12 249.87 266.49 249.86 251.65 264.7 251.66"/>
        <polygon class="cls-7" points="264.7 251.66 318.29 320.06 249.88 251.65 264.7 251.66"/>
        <polygon class="cls-4" points="249.87 236.83 318.33 183.2 264.7 251.66 249.86 251.65 249.87 236.83"/>
        <polygon class="cls-7" points="249.87 236.83 318.27 183.24 249.86 251.65 249.87 236.83"/>
      </g>
    </g>
  </g>
</svg>