<?xml version="1.0" encoding="UTF-8"?>
<!--Generator: Apple Native CoreSVG 175.5-->
<!DOCTYPE svg
PUBLIC "-//W3C//DTD SVG 1.1//EN"
       "http://www.w3.org/Graphics/SVG/1.1/DTD/svg11.dtd">
<svg version="1.1" xmlns="http://www.w3.org/2000/svg" xmlns:xlink="http://www.w3.org/1999/xlink" width="7.32997" height="21.4437">
 <g>
  <rect height="21.4437" opacity="0" width="7.32997" x="0" y="0"/>
  <path d="M0 3.67849C0 5.39269 1.16248 6.82871 2.75861 7.24104L2.75861 16.2975C2.75861 19.1674 3.26408 20.7441 3.66604 20.7441C4.05554 20.7441 4.56104 19.1799 4.56104 16.2975L4.56104 7.24104C6.15925 6.83906 7.32997 5.39269 7.32997 3.67849C7.32997 1.65149 5.70341 0 3.66604 0C1.62656 0 0 1.65149 0 3.67849Z" fill="#ff453a"/>
  <path d="M2.61381 3.87728C1.94785 3.87728 1.36066 3.29433 1.36066 2.61378C1.36066 1.93537 1.94785 1.36066 2.61381 1.36066C3.30468 1.36066 3.86905 1.93537 3.86905 2.61378C3.86905 3.29433 3.30468 3.87728 2.61381 3.87728Z" fill="#ffffff"/>
 </g>
</svg>
